<?xml version="1.0" standalone="no"?>
<!DOCTYPE svg PUBLIC "-//W3C//DTD SVG 20010904//EN"
 "http://www.w3.org/TR/2001/REC-SVG-20010904/DTD/svg10.dtd">
<svg version="1.0" xmlns="http://www.w3.org/2000/svg"
 width="16.000000pt" height="16.000000pt" viewBox="0 0 16.000000 16.000000"
 preserveAspectRatio="xMidYMid meet">
<metadata>
Created by potrace 1.11, written by Peter Selinger 2001-2013
</metadata>
<g transform="translate(0.000000,16.000000) scale(0.001717,-0.001717)"
fill="#000000" stroke="none">
<path d="M4322 9295 c-35 -12 -65 -23 -68 -23 -12 -1 -157 -47 -219 -69 -106
-37 -147 -55 -178 -76 -24 -17 -39 -19 -90 -13 -143 16 -177 18 -178 9 -1 -4
-3 -31 -5 -60 -2 -46 1 -56 27 -85 71 -78 145 -200 191 -313 33 -81 62 -211
102 -450 36 -220 36 -215 22 -215 -8 0 -46 -14 -87 -31 -41 -17 -78 -32 -84
-33 -17 -3 -196 -96 -260 -134 -154 -92 -315 -229 -412 -350 -21 -26 -41 -49
-44 -52 -32 -28 -219 -352 -219 -381 0 -3 -10 -28 -22 -55 -11 -27 -21 -51
-21 -54 0 -3 -11 -36 -24 -75 -36 -102 -36 -102 1 -130 18 -14 38 -25 44 -25
6 0 12 -4 14 -8 2 -4 152 -106 333 -227 182 -120 332 -222 333 -227 2 -4 8 -8
12 -8 5 0 320 -207 701 -460 380 -253 693 -460 696 -460 2 0 13 -8 24 -18 10
-11 32 -25 47 -33 15 -8 29 -17 32 -20 9 -10 244 -164 263 -171 9 -4 17 -12
17 -18 0 -5 4 -10 9 -10 9 0 217 -134 246 -157 6 -5 35 -24 65 -43 30 -19 57
-37 60 -40 3 -3 30 -21 60 -40 30 -19 64 -43 74 -52 11 -10 23 -18 27 -18 5 0
29 -15 55 -32 61 -44 100 -69 234 -157 47 -31 87 -58 90 -61 3 -3 17 -11 33
-19 15 -8 27 -18 27 -23 0 -4 4 -8 10 -8 8 0 155 -95 170 -110 3 -3 17 -11 33
-19 15 -8 27 -18 27 -23 0 -4 4 -8 9 -8 12 0 105 -61 109 -72 2 -4 7 -8 12 -8
4 0 71 -42 148 -93 l140 -94 -39 -24 c-21 -13 -39 -26 -39 -30 0 -3 -11 -11
-25 -17 -14 -7 -31 -17 -38 -22 -7 -6 -77 -56 -157 -110 -80 -55 -149 -103
-155 -108 -5 -4 -37 -26 -70 -48 -77 -51 -126 -86 -142 -101 -7 -6 -22 -15
-33 -18 -11 -3 -20 -10 -20 -14 0 -3 -15 -15 -32 -26 -18 -10 -67 -43 -108
-72 -41 -29 -82 -58 -90 -63 -8 -6 -121 -83 -250 -173 -371 -256 -379 -261
-397 -272 -9 -5 -28 -20 -42 -33 -14 -12 -31 -22 -38 -22 -7 0 -13 -4 -13 -8
0 -4 -15 -16 -32 -27 -28 -16 -158 -106 -193 -132 -9 -7 -92 -64 -245 -168
-25 -16 -46 -33 -48 -37 -2 -5 -8 -8 -13 -8 -5 0 -30 -16 -56 -35 -27 -19 -53
-39 -58 -43 -6 -4 -37 -25 -70 -48 -175 -118 -262 -179 -282 -197 -13 -11 -23
-16 -23 -11 0 5 -4 4 -8 -2 -4 -6 -50 -39 -102 -75 -52 -35 -97 -66 -100 -69
-3 -3 -32 -23 -65 -45 -33 -22 -62 -42 -65 -45 -3 -3 -30 -22 -60 -42 -98 -66
-235 -161 -240 -167 -3 -3 -13 -10 -22 -16 -20 -12 -218 -146 -233 -158 -22
-18 -196 -137 -200 -137 -3 0 -13 -7 -22 -16 -10 -9 -99 -71 -198 -139 -99
-68 -185 -127 -190 -132 -14 -11 -212 -146 -233 -158 -9 -5 -19 -12 -22 -16
-9 -10 -320 -224 -340 -234 -11 -5 -20 -13 -20 -17 0 -5 -6 -8 -14 -8 -8 0
-16 -4 -18 -8 -1 -4 -40 -33 -85 -64 l-81 -56 1 229 c1 126 -1 229 -5 229 -4
0 -5 7 -2 15 10 24 10 625 1 625 -5 0 -5 5 -1 11 3 6 6 120 6 253 0 132 4 243
8 246 4 3 18 13 31 23 23 17 153 105 489 331 91 61 171 117 178 123 7 7 17 13
22 13 5 0 15 6 22 13 7 6 123 86 258 176 135 91 247 169 248 173 2 4 8 8 14 8
5 0 75 45 155 100 79 55 154 105 166 112 12 6 24 14 27 17 5 7 257 178 288
196 10 6 54 36 99 68 44 31 86 57 92 57 6 0 11 4 11 8 0 4 15 16 33 27 17 10
34 21 37 24 3 4 37 26 75 51 39 25 72 47 75 50 3 3 73 50 155 105 83 55 152
103 153 108 2 4 10 7 18 7 8 0 14 5 14 10 0 6 7 10 15 10 8 0 15 3 15 8 0 4
14 15 32 25 33 19 31 28 -11 51 -27 15 -253 158 -266 169 -5 4 -59 39 -120 77
-60 38 -115 74 -122 79 -7 6 -14 11 -17 11 -3 0 -24 13 -48 28 -24 16 -79 52
-123 80 -44 28 -85 56 -92 61 -7 6 -15 11 -18 11 -3 0 -49 29 -103 64 -53 35
-142 92 -197 126 -55 35 -157 100 -226 144 -69 45 -133 86 -142 91 -36 22
-243 155 -253 162 -5 4 -19 13 -30 20 -10 6 -63 40 -117 75 -54 35 -106 68
-115 73 -10 6 -32 20 -49 33 -17 12 -36 22 -42 22 -6 0 -11 5 -11 12 0 9 -3 9
-12 0 -12 -12 -13 -15 -23 -92 -6 -45 -14 -98 -22 -135 -2 -11 -8 -42 -13 -70
-6 -27 -12 -61 -15 -75 -3 -14 -8 -41 -11 -60 -10 -52 -11 -56 -38 -164 -14
-54 -25 -102 -24 -105 1 -3 -1 -13 -5 -21 -13 -36 -29 -87 -33 -110 -8 -40
-54 -171 -82 -230 -47 -101 -180 -280 -347 -466 -5 -6 -32 -37 -60 -69 -27
-32 -59 -69 -70 -81 -11 -12 -38 -43 -60 -69 -22 -26 -50 -59 -63 -74 -46 -53
-201 -259 -259 -346 -59 -88 -80 -123 -119 -195 -11 -19 -22 -37 -25 -40 -5
-5 -82 -160 -84 -170 0 -3 -11 -27 -23 -54 -12 -27 -22 -50 -22 -52 0 -1 -5
-15 -12 -31 -6 -15 -12 -30 -13 -33 0 -3 -12 -41 -26 -85 -33 -102 -52 -166
-54 -185 -2 -8 -5 -26 -8 -40 -13 -60 -26 -129 -32 -180 -4 -30 -9 -73 -12
-95 -9 -67 -9 -435 0 -520 16 -160 24 -220 39 -285 5 -25 12 -56 14 -70 5 -25
49 -168 63 -205 57 -144 175 -326 277 -429 56 -56 190 -166 214 -174 8 -3 22
-10 30 -17 46 -37 218 -115 340 -154 36 -12 79 -25 95 -30 17 -6 41 -12 55
-15 14 -3 57 -12 95 -20 70 -15 98 -19 190 -31 28 -3 66 -8 84 -11 98 -13 212
-17 466 -17 258 0 353 3 570 19 44 3 103 7 130 9 28 2 79 6 115 10 107 10 171
15 240 21 36 3 81 7 100 9 19 2 69 7 110 10 116 11 145 13 145 15 0 1 149 11
220 14 33 1 65 4 70 7 14 7 399 3 470 -5 33 -4 80 -9 105 -10 25 -2 56 -6 70
-9 14 -3 54 -9 90 -12 76 -7 121 -12 164 -19 17 -3 63 -8 101 -11 39 -4 84 -9
100 -12 40 -7 86 -12 167 -17 37 -2 71 -6 75 -8 36 -19 657 -13 752 6 14 3 44
8 66 12 22 3 48 7 57 10 9 3 25 7 35 9 78 19 110 28 183 55 218 80 377 197
529 385 36 44 78 95 95 112 16 18 26 33 22 33 -4 0 0 7 9 16 28 29 124 162
206 288 44 66 86 130 94 141 8 10 15 23 15 27 0 4 18 37 40 73 22 36 36 65 32
65 -4 0 -2 4 4 8 12 8 81 149 126 257 28 66 105 288 114 327 2 10 6 28 10 41
3 12 7 33 10 47 3 14 11 58 19 97 9 40 15 76 14 80 -1 5 0 10 1 13 14 33 19
417 7 500 -3 19 -8 58 -12 85 -3 28 -10 66 -15 85 -5 19 -11 47 -14 61 -11 63
-75 271 -107 347 -5 12 -13 32 -18 45 -10 27 -156 320 -179 362 -9 17 -20 32
-24 33 -5 2 -8 8 -8 13 0 5 -12 28 -27 52 -16 23 -30 47 -33 52 -6 12 -101
155 -112 170 -5 6 -50 66 -101 135 -50 69 -97 131 -104 138 -8 8 -26 30 -41
50 -15 21 -29 39 -32 42 -3 3 -28 32 -56 65 -64 76 -87 104 -114 135 -12 14
-59 66 -104 115 -45 50 -98 107 -117 128 -19 21 -78 84 -132 140 -231 239
-344 358 -382 403 -22 25 -45 52 -50 58 -6 6 -28 33 -50 61 -22 27 -48 58 -57
68 -9 11 -29 39 -44 63 -15 24 -32 44 -36 44 -4 0 -8 4 -8 10 0 10 -55 92 -82
124 -10 11 -18 26 -18 33 0 7 -4 13 -10 13 -5 0 -10 4 -10 10 0 5 -15 33 -34
62 -40 64 -103 177 -153 278 -21 41 -41 77 -45 78 -5 2 -8 9 -8 16 0 7 -18 50
-40 95 -22 45 -40 84 -40 88 0 3 -14 36 -31 72 -17 36 -32 71 -34 76 -1 6 -7
21 -13 35 -5 14 -24 61 -42 105 -18 44 -38 94 -45 110 -7 17 -25 62 -39 100
-15 39 -34 84 -41 100 -8 17 -24 55 -36 85 -12 30 -30 75 -42 100 -11 25 -28
64 -38 87 -51 120 -158 314 -201 368 -5 6 -22 28 -39 50 -54 70 -143 158 -213
210 -68 50 -235 128 -301 141 -11 2 -31 6 -45 9 -47 11 -65 15 -89 20 -37 7
-206 18 -306 19 l-90 1 -1 255 c-1 140 -3 260 -4 265 -1 6 -2 14 -1 19 1 6 4
30 7 55 3 25 7 64 10 86 3 22 6 54 8 70 2 17 7 50 11 75 4 25 8 56 10 70 2 21
12 84 29 190 3 14 5 25 6 25 1 0 4 33 6 73 6 83 9 81 -84 47z"/>
</g>
</svg>
